<svg id="svg" version="1.1" xmlns="http://www.w3.org/2000/svg" xmlns:xlink="http://www.w3.org/1999/xlink" width="400" height="400" viewBox="0, 0, 400,400"><g id="svgg"><path id="path0" d="M170.191 70.009 L 141.002 99.200 170.177 128.377 C 186.223 144.424,199.463 157.485,199.600 157.400 C 199.736 157.316,199.820 147.693,199.786 136.015 C 199.742 121.133,199.855 114.624,200.162 114.248 C 200.623 113.685,210.808 114.287,215.400 115.149 C 220.327 116.074,228.515 118.340,231.400 119.576 C 231.840 119.765,232.830 120.148,233.600 120.428 C 256.653 128.800,278.120 152.757,285.189 178.000 C 285.466 178.990,285.833 180.250,286.004 180.800 C 290.728 196.001,289.069 221.171,282.371 235.896 C 281.947 236.828,281.600 237.679,281.600 237.786 C 281.600 237.893,281.085 239.109,280.455 240.490 C 279.825 241.870,279.196 243.363,279.058 243.806 C 278.771 244.724,299.088 265.437,299.982 265.139 C 300.610 264.930,306.255 254.425,308.118 250.000 C 308.442 249.230,309.067 247.790,309.507 246.800 C 311.832 241.570,315.260 229.441,316.347 222.600 C 316.592 221.060,317.015 218.450,317.288 216.800 C 317.947 212.822,317.931 193.704,317.266 189.400 C 316.994 187.640,316.575 184.940,316.335 183.400 C 315.011 174.903,311.820 163.879,308.520 156.400 C 297.471 131.363,281.763 113.925,257.105 99.327 C 251.877 96.231,240.183 91.345,233.800 89.589 C 222.142 86.381,215.755 85.295,206.000 84.859 L 200.200 84.600 200.096 63.016 C 200.040 51.146,199.855 41.295,199.686 41.126 C 199.517 40.957,186.244 53.955,170.191 70.009 M99.200 140.838 C 99.200 141.079,98.860 141.754,98.444 142.338 C 96.847 144.582,92.378 153.612,90.594 158.200 C 89.568 160.840,88.573 163.360,88.384 163.800 C 87.597 165.632,85.623 172.382,84.758 176.200 C 81.527 190.457,80.843 206.014,82.860 219.400 C 84.308 229.009,86.794 238.427,89.988 246.400 C 101.924 276.198,126.263 300.818,155.000 312.162 C 156.540 312.770,158.340 313.507,159.000 313.801 C 162.566 315.386,170.885 317.623,177.600 318.804 C 179.030 319.055,181.010 319.416,182.000 319.605 C 184.825 320.146,192.246 320.833,196.200 320.921 L 199.800 321.000 199.900 342.400 C 199.955 354.170,200.086 364.029,200.191 364.310 C 200.390 364.839,258.400 307.127,258.400 306.400 C 258.400 305.832,200.518 248.016,200.234 248.300 C 200.105 248.428,200.000 258.213,200.000 270.043 C 200.000 281.873,199.865 291.623,199.700 291.709 C 199.209 291.966,189.224 291.263,186.200 290.760 C 178.874 289.540,173.528 288.017,165.101 284.749 C 137.469 274.032,116.258 246.022,111.618 214.123 C 111.067 210.334,111.081 194.803,111.639 191.107 C 113.069 181.632,115.631 173.000,119.430 164.864 C 120.183 163.250,120.800 161.718,120.800 161.461 C 120.800 160.832,100.328 140.400,99.697 140.400 C 99.424 140.400,99.200 140.597,99.200 140.838 " stroke="none" fill="#1c58c3" fill-rule="evenodd"></path><path id="path1" d="M0.000 200.000 L 0.000 400.000 200.000 400.000 L 400.000 400.000 400.000 200.000 L 400.000 0.000 200.000 0.000 L 0.000 0.000 0.000 200.000 M200.303 62.078 L 200.407 83.889 206.503 84.162 C 209.857 84.312,213.680 84.611,215.000 84.826 C 216.320 85.042,218.570 85.403,220.000 85.630 C 223.284 86.149,225.167 86.567,230.800 88.029 C 260.386 95.707,288.389 117.325,303.043 143.800 C 304.367 146.193,307.916 153.226,308.513 154.641 C 310.928 160.362,312.400 164.227,312.400 164.843 C 312.400 165.233,312.559 165.651,312.754 165.771 C 312.949 165.892,313.204 166.487,313.321 167.095 C 313.438 167.703,313.713 168.830,313.932 169.600 C 314.747 172.463,315.495 175.469,315.973 177.800 C 316.244 179.120,316.615 180.920,316.799 181.800 C 319.675 195.581,319.214 215.101,315.664 229.800 C 312.971 240.948,307.549 254.180,301.363 264.697 C 300.167 266.731,300.004 266.610,288.634 255.234 L 277.874 244.468 278.981 242.134 C 280.667 238.577,283.715 230.750,284.406 228.200 C 286.663 219.868,287.453 215.409,287.970 208.080 C 288.503 200.528,287.291 188.501,285.221 180.800 C 285.014 180.030,284.677 178.770,284.471 178.000 C 277.641 152.458,256.665 129.901,230.600 120.068 C 225.766 118.245,220.694 116.852,215.800 116.003 C 214.260 115.736,212.136 115.357,211.080 115.159 C 210.024 114.962,207.189 114.800,204.780 114.800 L 200.400 114.800 200.400 136.400 L 200.400 158.000 206.592 158.000 C 212.685 158.000,212.788 158.014,212.994 158.900 C 218.787 183.761,225.167 213.365,227.189 224.766 C 227.634 227.277,228.068 229.402,228.154 229.487 C 228.239 229.573,228.610 227.968,228.979 225.921 C 230.393 218.063,231.804 211.352,237.457 185.600 C 240.668 170.970,243.476 158.775,243.697 158.500 C 244.278 157.776,269.458 157.774,269.699 158.498 C 269.790 158.771,269.710 159.536,269.520 160.198 C 269.330 160.859,267.010 170.220,264.363 181.000 C 261.717 191.780,257.847 207.530,255.763 216.000 C 253.679 224.470,250.607 236.980,248.937 243.800 C 247.267 250.620,245.721 256.425,245.501 256.700 C 245.194 257.085,241.522 257.200,229.600 257.200 C 217.686 257.200,214.002 257.084,213.684 256.700 C 213.145 256.048,203.184 210.635,201.519 201.237 C 200.225 193.932,199.936 193.351,199.413 197.000 C 198.501 203.364,186.974 255.891,186.311 256.700 C 185.717 257.426,155.078 257.426,154.499 256.700 C 154.280 256.425,152.081 248.010,149.612 238.000 C 147.143 227.990,141.720 206.059,137.561 189.263 C 133.401 172.468,130.099 158.563,130.223 158.363 C 130.350 158.158,136.000 158.000,143.232 158.000 L 156.017 158.000 156.395 158.900 C 156.887 160.070,168.498 213.702,170.215 222.733 C 170.940 226.546,171.602 229.735,171.686 229.819 C 171.770 229.903,172.155 227.953,172.542 225.486 C 174.127 215.386,186.417 159.990,187.441 158.334 C 187.554 158.150,189.977 158.000,192.824 158.000 C 196.692 158.000,198.000 157.874,198.000 157.501 C 198.000 157.227,184.995 143.997,169.101 128.101 L 140.202 99.200 169.800 69.600 C 186.079 53.320,199.579 40.060,199.799 40.133 C 200.059 40.219,200.236 47.957,200.303 62.078 M111.342 150.349 L 122.065 161.099 121.082 163.049 C 118.923 167.337,116.480 173.374,115.560 176.700 C 115.362 177.415,115.008 178.675,114.773 179.500 C 111.534 190.891,110.735 206.525,112.837 217.400 C 113.870 222.740,114.109 223.874,114.396 224.800 C 114.567 225.350,114.934 226.610,115.211 227.600 C 123.165 256.004,147.211 279.977,175.400 287.606 C 179.948 288.837,181.313 289.160,183.800 289.594 C 185.340 289.862,187.464 290.243,188.520 290.441 C 189.576 290.638,192.501 290.800,195.020 290.800 L 199.600 290.800 199.600 269.000 C 199.600 251.850,199.706 247.200,200.099 247.200 C 200.818 247.200,259.200 305.680,259.200 306.400 C 259.200 307.120,200.818 365.600,200.099 365.600 C 199.706 365.600,199.600 360.955,199.600 343.827 C 199.600 323.432,199.556 322.041,198.900 321.857 C 198.515 321.749,195.860 321.551,193.000 321.416 C 183.870 320.987,172.143 318.887,163.400 316.117 C 160.297 315.134,159.349 314.777,156.400 313.479 C 155.630 313.140,154.010 312.476,152.800 312.004 C 131.495 303.687,107.721 282.234,96.059 260.800 C 91.556 252.524,87.707 243.221,85.549 235.400 C 85.306 234.520,84.957 233.350,84.773 232.800 C 84.074 230.713,82.437 221.698,81.613 215.400 C 80.619 207.804,81.206 191.050,82.761 182.600 C 83.529 178.428,83.994 176.154,84.356 174.800 C 84.562 174.030,85.021 172.320,85.375 171.000 C 86.168 168.048,89.187 159.148,89.581 158.600 C 89.740 158.380,90.296 157.120,90.818 155.800 C 93.209 149.750,98.917 139.600,99.928 139.600 C 100.308 139.600,105.445 144.437,111.342 150.349 " stroke="none" fill="#fbfbfb" fill-rule="evenodd"></path><path id="path2" d="M205.305 84.687 C 205.914 84.779,206.814 84.777,207.305 84.682 C 207.797 84.587,207.300 84.511,206.200 84.514 C 205.100 84.517,204.697 84.595,205.305 84.687 M278.000 113.725 C 278.000 113.794,278.585 114.379,279.300 115.025 L 280.600 116.200 279.425 114.900 C 278.330 113.688,278.000 113.416,278.000 113.725 M200.245 114.328 C 200.133 114.508,200.573 114.577,201.221 114.482 C 201.870 114.387,202.400 114.240,202.400 114.155 C 202.400 113.850,200.443 114.007,200.245 114.328 M286.400 122.125 C 286.400 122.194,286.985 122.779,287.700 123.425 L 289.000 124.600 287.825 123.300 C 286.730 122.088,286.400 121.816,286.400 122.125 M262.200 140.000 C 264.392 142.200,266.275 144.000,266.385 144.000 C 266.495 144.000,264.792 142.200,262.600 140.000 C 260.408 137.800,258.525 136.000,258.415 136.000 C 258.305 136.000,260.008 137.800,262.200 140.000 M110.804 150.600 C 116.632 156.540,121.482 161.348,121.583 161.284 C 121.683 161.220,116.915 156.360,110.987 150.484 L 100.207 139.800 110.804 150.600 M81.701 192.600 C 81.705 193.480,81.787 193.793,81.883 193.295 C 81.979 192.798,81.975 192.078,81.875 191.695 C 81.775 191.313,81.696 191.720,81.701 192.600 M199.832 192.260 C 199.694 192.620,199.675 193.009,199.791 193.124 C 199.906 193.239,200.003 193.078,200.006 192.767 C 200.011 192.300,200.081 192.306,200.400 192.800 C 200.734 193.317,200.789 193.307,200.794 192.724 C 200.802 191.785,200.138 191.464,199.832 192.260 M317.693 193.600 C 317.693 194.370,317.775 194.685,317.876 194.300 C 317.976 193.915,317.976 193.285,317.876 192.900 C 317.775 192.515,317.693 192.830,317.693 193.600 M318.109 197.600 C 318.109 198.590,318.187 198.995,318.282 198.500 C 318.378 198.005,318.378 197.195,318.282 196.700 C 318.187 196.205,318.109 196.610,318.109 197.600 M288.093 197.600 C 288.093 198.370,288.175 198.685,288.276 198.300 C 288.376 197.915,288.376 197.285,288.276 196.900 C 288.175 196.515,288.093 196.830,288.093 197.600 M288.550 204.200 C 288.551 206.620,288.616 207.558,288.696 206.285 C 288.776 205.012,288.775 203.032,288.694 201.885 C 288.614 200.738,288.549 201.780,288.550 204.200 M318.120 210.000 C 318.120 211.210,318.195 211.705,318.287 211.100 C 318.378 210.495,318.378 209.505,318.287 208.900 C 318.195 208.295,318.120 208.790,318.120 210.000 M286.629 220.229 C 286.481 220.815,286.438 221.372,286.532 221.466 C 286.627 221.560,286.824 221.158,286.971 220.571 C 287.119 219.985,287.162 219.428,287.068 219.334 C 286.973 219.240,286.776 219.642,286.629 220.229 M200.049 247.700 C 200.150 247.755,213.455 260.940,229.616 277.000 L 259.000 306.200 229.801 276.900 C 213.742 260.785,200.437 247.600,200.234 247.600 C 200.032 247.600,199.949 247.645,200.049 247.700 M199.696 269.675 L 199.600 291.149 198.300 291.311 L 197.000 291.472 198.313 291.536 C 200.116 291.624,200.020 292.962,199.900 269.400 L 199.793 248.200 199.696 269.675 M136.800 265.400 C 138.217 266.830,139.467 268.000,139.577 268.000 C 139.687 268.000,138.617 266.830,137.200 265.400 C 135.783 263.970,134.533 262.800,134.423 262.800 C 134.313 262.800,135.383 263.970,136.800 265.400 M111.200 281.725 C 111.200 281.794,111.785 282.379,112.500 283.025 L 113.800 284.200 112.625 282.900 C 111.530 281.688,111.200 281.416,111.200 281.725 M118.400 288.925 C 118.400 288.994,118.985 289.579,119.700 290.225 L 121.000 291.400 119.825 290.100 C 118.730 288.888,118.400 288.616,118.400 288.925 M229.394 336.001 C 213.331 352.060,200.282 365.200,200.395 365.200 C 200.509 365.200,213.741 352.060,229.800 336.000 C 245.859 319.940,258.908 306.800,258.799 306.801 C 258.690 306.801,245.457 319.941,229.394 336.001 M192.505 321.087 C 193.114 321.179,194.014 321.177,194.505 321.082 C 194.997 320.987,194.500 320.911,193.400 320.914 C 192.300 320.917,191.897 320.995,192.505 321.087 M198.697 321.488 L 199.593 321.652 199.702 342.926 L 199.810 364.200 199.805 342.800 L 199.800 321.400 198.800 321.361 C 197.937 321.328,197.923 321.345,198.697 321.488 " stroke="none" fill="#9bb5e6" fill-rule="evenodd"></path><path id="path3" d="M170.199 69.700 L 141.000 99.000 170.217 69.884 C 186.287 53.870,199.590 40.910,199.781 41.084 C 199.972 41.258,199.999 41.175,199.841 40.900 C 199.682 40.625,199.518 40.400,199.475 40.400 C 199.433 40.400,186.258 53.585,170.199 69.700 M200.363 84.524 C 200.542 84.703,201.569 84.790,202.644 84.718 L 204.600 84.587 202.319 84.394 C 201.064 84.287,200.184 84.346,200.363 84.524 M210.900 85.076 C 211.285 85.176,211.915 85.176,212.300 85.076 C 212.685 84.975,212.370 84.893,211.600 84.893 C 210.830 84.893,210.515 84.975,210.900 85.076 M170.100 128.601 C 186.105 144.662,199.200 157.932,199.200 158.090 C 199.200 158.248,196.640 158.428,193.510 158.489 L 187.820 158.600 187.176 161.200 C 186.556 163.704,185.205 169.453,184.357 173.200 C 184.133 174.190,183.792 175.630,183.600 176.400 C 183.408 177.170,183.069 178.610,182.847 179.600 C 182.467 181.294,181.908 183.692,180.000 191.800 C 178.715 197.261,177.585 202.078,177.184 203.800 C 176.773 205.568,174.644 216.429,173.969 220.200 C 173.733 221.520,173.386 223.410,173.199 224.400 C 173.012 225.390,172.640 227.595,172.373 229.300 C 171.913 232.235,171.200 233.529,171.200 231.431 C 171.200 230.897,171.008 229.502,170.774 228.331 C 170.540 227.159,170.179 225.300,169.973 224.200 C 169.766 223.100,169.306 220.760,168.949 219.000 C 168.592 217.240,168.143 214.990,167.952 214.000 C 167.761 213.010,167.442 211.480,167.243 210.600 C 167.044 209.720,166.664 208.010,166.400 206.800 C 166.136 205.590,165.757 203.880,165.559 203.000 C 165.360 202.120,165.019 200.500,164.800 199.400 C 164.581 198.300,164.240 196.680,164.041 195.800 C 163.843 194.920,163.464 193.210,163.200 192.000 C 162.936 190.790,162.577 189.170,162.403 188.400 C 162.229 187.630,161.687 185.110,161.200 182.800 C 160.713 180.490,160.171 177.970,159.997 177.200 C 159.823 176.430,159.464 174.810,159.200 173.600 C 158.936 172.390,158.557 170.680,158.359 169.800 C 158.160 168.920,157.819 167.300,157.600 166.200 C 157.381 165.100,157.040 163.480,156.842 162.600 C 156.644 161.720,156.351 160.415,156.191 159.700 L 155.900 158.400 143.417 158.400 C 136.551 158.400,130.840 158.494,130.725 158.608 C 130.542 158.791,130.934 160.613,132.421 166.500 C 132.630 167.325,132.980 168.720,133.200 169.600 C 133.420 170.480,133.795 171.965,134.033 172.900 C 134.271 173.835,134.626 175.230,134.820 176.000 C 135.015 176.770,136.806 184.060,138.800 192.200 C 140.794 200.340,142.599 207.675,142.813 208.500 C 143.026 209.325,143.365 210.675,143.567 211.500 C 143.769 212.325,144.114 213.720,144.334 214.600 C 144.554 215.480,144.914 216.920,145.134 217.800 C 145.354 218.680,145.723 220.120,145.954 221.000 C 146.186 221.880,148.006 229.260,150.000 237.400 C 151.994 245.540,153.795 252.830,154.002 253.600 C 154.210 254.370,154.432 255.360,154.495 255.800 C 154.640 256.801,185.887 257.299,186.160 256.305 C 186.237 256.027,186.511 254.810,186.769 253.600 C 187.028 252.390,187.410 250.635,187.620 249.700 C 188.223 247.003,188.770 244.537,189.172 242.700 C 189.377 241.765,189.737 240.145,189.972 239.100 C 190.207 238.055,190.567 236.435,190.772 235.500 C 190.977 234.565,191.337 232.945,191.572 231.900 C 191.807 230.855,192.180 229.190,192.400 228.200 C 192.620 227.210,192.980 225.590,193.200 224.600 C 193.420 223.610,193.767 222.035,193.972 221.100 C 194.177 220.165,194.549 218.500,194.800 217.400 C 195.939 212.403,196.530 209.651,197.203 206.200 C 198.044 201.894,198.345 200.243,198.807 197.400 C 199.820 191.177,200.488 190.205,200.946 194.289 C 201.332 197.724,202.959 206.966,203.959 211.400 C 204.157 212.280,204.535 213.990,204.799 215.200 C 205.370 217.817,205.960 220.476,206.396 222.400 C 206.571 223.170,207.113 225.690,207.600 228.000 C 208.087 230.310,208.629 232.830,208.803 233.600 C 208.977 234.370,209.336 235.990,209.600 237.200 C 209.864 238.410,210.224 240.030,210.400 240.800 C 210.576 241.570,210.936 243.190,211.200 244.400 C 211.464 245.610,211.824 247.230,212.000 248.000 C 212.672 250.945,213.298 253.854,213.551 255.200 L 213.814 256.600 229.601 256.600 C 245.084 256.600,245.391 256.585,245.505 255.800 C 245.568 255.360,245.790 254.370,245.997 253.600 C 246.203 252.830,247.465 247.700,248.800 242.200 C 250.135 236.700,251.401 231.525,251.614 230.700 C 251.826 229.875,252.174 228.525,252.386 227.700 C 252.599 226.875,253.865 221.700,255.200 216.200 C 256.535 210.700,257.801 205.525,258.014 204.700 C 258.226 203.875,258.574 202.525,258.786 201.700 C 258.999 200.875,260.265 195.700,261.600 190.200 C 262.935 184.700,264.201 179.525,264.414 178.700 C 264.626 177.875,264.975 176.525,265.188 175.700 C 266.467 170.755,269.200 159.305,269.200 158.891 C 269.200 158.513,266.308 158.400,256.652 158.400 L 244.104 158.400 243.652 160.200 C 243.205 161.980,242.694 164.200,241.972 167.500 C 241.767 168.435,241.420 170.010,241.200 171.000 C 240.980 171.990,240.633 173.565,240.428 174.500 C 240.223 175.435,239.863 177.055,239.628 178.100 C 239.393 179.145,239.007 180.855,238.772 181.900 C 238.537 182.945,238.177 184.565,237.972 185.500 C 237.767 186.435,237.407 188.055,237.172 189.100 C 236.937 190.145,236.577 191.765,236.372 192.700 C 236.167 193.635,235.833 195.165,235.628 196.100 C 235.423 197.035,235.067 198.610,234.835 199.600 C 234.603 200.590,234.119 202.840,233.759 204.600 C 233.398 206.360,232.945 208.520,232.751 209.400 C 232.557 210.280,232.202 211.990,231.962 213.200 C 231.722 214.410,231.379 216.120,231.200 217.000 C 231.021 217.880,230.669 219.680,230.419 221.000 C 230.169 222.320,229.792 224.300,229.580 225.400 C 229.369 226.500,229.082 228.435,228.943 229.700 C 228.519 233.544,227.814 232.196,226.800 225.600 C 226.546 223.950,226.185 221.880,225.996 221.000 C 225.808 220.120,225.449 218.230,225.200 216.800 C 224.951 215.370,224.593 213.480,224.406 212.600 C 224.218 211.720,223.856 209.920,223.600 208.600 C 222.902 204.999,222.154 201.577,220.800 195.800 C 219.975 192.281,219.581 190.543,218.828 187.100 C 217.770 182.266,217.037 179.026,216.000 174.600 C 214.757 169.296,213.371 163.115,212.615 159.500 L 212.385 158.400 206.192 158.400 C 200.679 158.400,200.000 158.327,200.000 157.733 C 200.000 157.367,199.873 157.194,199.717 157.349 C 199.562 157.505,186.287 144.530,170.217 128.516 L 141.000 99.400 170.100 128.601 M276.800 112.925 C 276.800 112.994,277.385 113.579,278.100 114.225 L 279.400 115.400 278.225 114.100 C 277.130 112.888,276.800 112.616,276.800 112.925 M203.500 114.289 C 204.215 114.378,205.385 114.378,206.100 114.289 C 206.815 114.201,206.230 114.128,204.800 114.128 C 203.370 114.128,202.785 114.201,203.500 114.289 M199.724 119.800 C 199.726 121.120,199.801 121.612,199.890 120.893 C 199.979 120.174,199.977 119.094,199.886 118.493 C 199.795 117.892,199.722 118.480,199.724 119.800 M283.583 119.300 C 284.564 120.345,285.419 121.200,285.483 121.200 C 285.784 121.200,285.466 120.841,283.700 119.183 L 281.800 117.400 283.583 119.300 M287.200 123.325 C 287.200 123.394,287.785 123.979,288.500 124.625 L 289.800 125.800 288.625 124.500 C 287.530 123.288,287.200 123.016,287.200 123.325 M199.693 136.800 C 199.693 137.570,199.775 137.885,199.876 137.500 C 199.976 137.115,199.976 136.485,199.876 136.100 C 199.775 135.715,199.693 136.030,199.693 136.800 M262.800 140.200 C 264.217 141.630,265.467 142.800,265.577 142.800 C 265.687 142.800,264.617 141.630,263.200 140.200 C 261.783 138.770,260.533 137.600,260.423 137.600 C 260.313 137.600,261.383 138.770,262.800 140.200 M99.600 140.275 C 100.566 140.617,120.797 160.934,120.832 161.597 C 120.856 162.072,120.910 162.083,121.081 161.652 C 121.347 160.982,100.489 139.985,99.603 140.032 C 99.069 140.060,99.069 140.087,99.600 140.275 M199.709 142.000 C 199.709 142.990,199.787 143.395,199.882 142.900 C 199.978 142.405,199.978 141.595,199.882 141.100 C 199.787 140.605,199.709 141.010,199.709 142.000 M199.709 152.400 C 199.709 153.390,199.787 153.795,199.882 153.300 C 199.978 152.805,199.978 151.995,199.882 151.500 C 199.787 151.005,199.709 151.410,199.709 152.400 M314.456 174.400 C 314.456 174.730,314.611 175.360,314.800 175.800 C 315.017 176.304,315.144 176.378,315.144 176.000 C 315.144 175.670,314.989 175.040,314.800 174.600 C 314.583 174.096,314.456 174.022,314.456 174.400 M83.429 181.029 C 83.281 181.615,83.238 182.172,83.332 182.266 C 83.427 182.360,83.624 181.958,83.771 181.371 C 83.919 180.785,83.962 180.228,83.868 180.134 C 83.773 180.040,83.576 180.442,83.429 181.029 M82.101 191.800 C 82.105 192.680,82.187 192.993,82.283 192.495 C 82.379 191.998,82.375 191.278,82.275 190.895 C 82.175 190.513,82.096 190.920,82.101 191.800 M111.293 194.000 C 111.293 194.770,111.375 195.085,111.476 194.700 C 111.576 194.315,111.576 193.685,111.476 193.300 C 111.375 192.915,111.293 193.230,111.293 194.000 M81.709 195.600 C 81.709 196.590,81.787 196.995,81.882 196.500 C 81.978 196.005,81.978 195.195,81.882 194.700 C 81.787 194.205,81.709 194.610,81.709 195.600 M288.093 195.200 C 288.093 195.970,288.175 196.285,288.276 195.900 C 288.376 195.515,288.376 194.885,288.276 194.500 C 288.175 194.115,288.093 194.430,288.093 195.200 M317.709 196.400 C 317.709 197.390,317.787 197.795,317.882 197.300 C 317.978 196.805,317.978 195.995,317.882 195.500 C 317.787 195.005,317.709 195.410,317.709 196.400 M288.501 198.600 C 288.505 199.480,288.587 199.793,288.683 199.295 C 288.779 198.798,288.775 198.078,288.675 197.695 C 288.575 197.313,288.496 197.720,288.501 198.600 M318.151 203.600 C 318.151 206.130,318.216 207.165,318.296 205.900 C 318.375 204.635,318.375 202.565,318.296 201.300 C 318.216 200.035,318.151 201.070,318.151 203.600 M81.714 210.200 C 81.717 211.300,81.795 211.703,81.887 211.095 C 81.979 210.486,81.977 209.586,81.882 209.095 C 81.787 208.603,81.711 209.100,81.714 210.200 M111.293 211.200 C 111.293 211.970,111.375 212.285,111.476 211.900 C 111.576 211.515,111.576 210.885,111.476 210.500 C 111.375 210.115,111.293 210.430,111.293 211.200 M317.701 211.400 C 317.705 212.280,317.787 212.593,317.883 212.095 C 317.979 211.598,317.975 210.878,317.875 210.495 C 317.775 210.113,317.696 210.520,317.701 211.400 M112.056 217.600 C 112.056 217.930,112.211 218.560,112.400 219.000 C 112.617 219.504,112.744 219.578,112.744 219.200 C 112.744 218.870,112.589 218.240,112.400 217.800 C 112.183 217.296,112.056 217.222,112.056 217.600 M110.400 280.525 C 110.400 280.594,110.985 281.179,111.700 281.825 L 113.000 283.000 111.825 281.700 C 110.730 280.488,110.400 280.216,110.400 280.525 M115.800 286.400 C 117.106 287.720,118.265 288.800,118.375 288.800 C 118.485 288.800,117.506 287.720,116.200 286.400 C 114.894 285.080,113.735 284.000,113.625 284.000 C 113.515 284.000,114.494 285.080,115.800 286.400 M119.600 289.725 C 119.600 289.794,120.185 290.379,120.900 291.025 L 122.200 292.200 121.025 290.900 C 119.930 289.688,119.600 289.416,119.600 289.725 M193.500 291.489 C 194.215 291.578,195.385 291.578,196.100 291.489 C 196.815 291.401,196.230 291.328,194.800 291.328 C 193.370 291.328,192.785 291.401,193.500 291.489 M187.700 320.676 C 188.085 320.776,188.715 320.776,189.100 320.676 C 189.485 320.575,189.170 320.493,188.400 320.493 C 187.630 320.493,187.315 320.575,187.700 320.676 M195.600 321.027 C 196.944 321.327,199.911 321.380,199.738 321.100 C 199.636 320.935,198.528 320.821,197.276 320.846 C 196.024 320.872,195.270 320.953,195.600 321.027 " stroke="none" fill="#809af3" fill-rule="evenodd"></path><path id="path4" d="M199.016 40.374 C 198.861 40.624,199.005 40.696,199.376 40.554 C 199.927 40.343,200.005 42.655,200.102 62.059 L 200.211 83.800 200.205 62.033 C 200.200 40.818,200.081 38.651,199.016 40.374 M203.091 84.289 C 203.801 84.377,205.061 84.379,205.891 84.292 C 206.721 84.205,206.140 84.133,204.600 84.131 C 203.060 84.129,202.381 84.200,203.091 84.289 M209.300 84.691 C 210.125 84.778,211.475 84.778,212.300 84.691 C 213.125 84.605,212.450 84.534,210.800 84.534 C 209.150 84.534,208.475 84.605,209.300 84.691 M216.700 85.482 C 217.195 85.578,218.005 85.578,218.500 85.482 C 218.995 85.387,218.590 85.309,217.600 85.309 C 216.610 85.309,216.205 85.387,216.700 85.482 M221.700 86.276 C 222.085 86.376,222.715 86.376,223.100 86.276 C 223.485 86.175,223.170 86.093,222.400 86.093 C 221.630 86.093,221.315 86.175,221.700 86.276 M225.233 86.943 C 225.325 87.021,226.030 87.201,226.800 87.342 C 227.785 87.523,228.022 87.482,227.600 87.206 C 227.058 86.850,224.837 86.603,225.233 86.943 M228.433 87.743 C 228.525 87.821,229.230 88.001,230.000 88.142 C 230.985 88.323,231.222 88.282,230.800 88.006 C 230.258 87.650,228.037 87.403,228.433 87.743 M231.633 88.544 C 231.725 88.623,232.340 88.808,233.000 88.956 C 233.876 89.152,234.038 89.115,233.600 88.818 C 233.060 88.453,231.232 88.198,231.633 88.544 M246.997 93.995 C 247.135 94.218,247.441 94.400,247.677 94.400 C 247.914 94.400,249.793 95.199,251.854 96.175 C 256.006 98.141,256.969 98.302,253.199 96.400 C 249.968 94.768,246.689 93.498,246.997 93.995 M256.400 98.420 C 257.787 99.361,258.578 99.635,257.600 98.836 C 257.050 98.386,256.420 98.017,256.200 98.015 C 255.980 98.013,256.070 98.196,256.400 98.420 M258.800 99.735 C 258.800 99.837,259.401 100.275,260.135 100.708 C 260.869 101.141,261.994 101.811,262.635 102.195 L 263.800 102.895 262.800 102.067 C 261.657 101.121,258.800 99.456,258.800 99.735 M267.200 104.922 C 267.200 105.058,268.951 106.474,271.092 108.069 C 273.233 109.663,275.708 111.600,276.592 112.373 C 277.784 113.414,277.941 113.487,277.200 112.655 C 276.650 112.037,274.490 110.253,272.400 108.690 C 270.310 107.127,268.285 105.585,267.900 105.262 C 267.515 104.940,267.200 104.787,267.200 104.922 M283.449 118.817 C 286.116 121.558,289.066 124.610,290.004 125.600 L 291.711 127.400 290.189 125.600 C 287.575 122.506,284.009 118.778,281.252 116.258 C 279.793 114.925,280.782 116.076,283.449 118.817 M200.183 114.900 C 200.078 115.175,200.039 125.030,200.096 136.800 L 200.200 158.200 206.383 158.400 L 212.566 158.600 212.892 160.176 C 213.072 161.043,213.326 161.853,213.456 161.976 C 213.587 162.099,213.569 161.570,213.417 160.800 C 212.817 157.765,213.391 158.000,206.573 158.000 L 200.400 158.000 200.400 136.413 L 200.400 114.825 205.100 114.699 L 209.800 114.572 205.087 114.486 C 201.621 114.423,200.324 114.532,200.183 114.900 M212.705 115.483 C 213.202 115.579,213.922 115.575,214.305 115.475 C 214.687 115.375,214.280 115.296,213.400 115.301 C 212.520 115.305,212.207 115.387,212.705 115.483 M220.433 116.943 C 220.525 117.021,221.230 117.201,222.000 117.342 C 222.985 117.523,223.222 117.482,222.800 117.206 C 222.258 116.850,220.037 116.603,220.433 116.943 M223.633 117.744 C 223.725 117.823,224.340 118.008,225.000 118.156 C 225.876 118.352,226.038 118.315,225.600 118.018 C 225.060 117.653,223.232 117.398,223.633 117.744 M230.968 120.217 C 232.270 120.758,233.530 121.192,233.768 121.183 C 234.006 121.174,233.134 120.724,231.832 120.183 C 230.530 119.642,229.270 119.208,229.032 119.217 C 228.794 119.226,229.666 119.676,230.968 120.217 M293.825 130.500 C 295.075 132.205,296.176 133.600,296.273 133.600 C 296.523 133.600,294.128 130.308,292.728 128.726 C 292.082 127.997,292.576 128.795,293.825 130.500 M251.759 131.282 C 256.198 134.796,257.398 135.660,255.800 134.191 C 254.920 133.382,253.390 132.190,252.400 131.542 C 251.410 130.895,251.122 130.778,251.759 131.282 M262.383 140.600 C 268.400 146.937,268.928 147.450,266.502 144.600 C 265.378 143.280,262.967 140.760,261.143 139.000 C 258.600 136.547,258.890 136.921,262.383 140.600 M98.953 140.100 C 98.790 140.375,98.398 141.050,98.081 141.600 L 97.505 142.600 98.344 141.600 C 98.805 141.050,99.186 140.465,99.191 140.300 C 99.229 139.034,101.978 141.370,111.197 150.500 L 121.800 161.000 111.203 150.300 C 101.173 140.173,99.655 138.909,98.953 140.100 M301.560 141.800 C 302.234 143.105,302.788 143.828,302.785 143.400 C 302.783 143.180,302.414 142.550,301.964 142.000 C 301.421 141.336,301.285 141.269,301.560 141.800 M96.653 144.100 L 95.933 145.400 96.758 144.400 C 97.489 143.513,97.814 142.800,97.486 142.800 C 97.424 142.800,97.049 143.385,96.653 144.100 M269.583 148.700 C 270.326 149.635,271.006 150.400,271.094 150.400 C 271.377 150.400,269.663 148.149,268.935 147.564 C 268.548 147.254,268.840 147.765,269.583 148.700 M306.282 150.589 C 306.873 151.793,307.423 152.711,307.505 152.629 C 307.684 152.449,305.667 148.400,305.398 148.400 C 305.294 148.400,305.692 149.385,306.282 150.589 M274.749 156.200 C 274.965 156.640,275.434 157.360,275.793 157.800 L 276.444 158.600 276.051 157.800 C 275.835 157.360,275.366 156.640,275.007 156.200 L 274.356 155.400 274.749 156.200 M198.006 157.288 C 198.001 157.899,197.403 157.989,192.733 158.088 C 188.856 158.171,187.438 158.335,187.363 158.710 C 187.306 158.990,187.351 159.036,187.463 158.810 C 187.588 158.559,189.831 158.400,193.233 158.400 C 198.798 158.400,199.126 158.324,198.400 157.200 C 198.067 156.685,198.011 156.698,198.006 157.288 M130.138 158.617 C 130.008 158.957,130.013 159.347,130.151 159.484 C 130.288 159.621,130.400 159.433,130.400 159.067 C 130.400 158.458,131.518 158.400,143.167 158.400 L 155.933 158.400 156.335 159.500 C 156.556 160.105,156.751 160.363,156.768 160.074 C 156.893 157.992,156.943 158.000,143.173 158.000 C 132.007 158.000,130.345 158.079,130.138 158.617 M243.680 158.480 C 243.416 158.744,243.213 159.239,243.228 159.580 C 243.248 160.008,243.353 159.953,243.568 159.400 C 243.869 158.629,244.350 158.592,256.840 158.392 L 269.800 158.183 256.980 158.092 C 247.437 158.023,244.037 158.123,243.680 158.480 M89.157 159.500 C 88.209 161.961,87.551 164.085,87.693 164.226 C 87.775 164.309,88.313 163.032,88.888 161.388 C 89.870 158.582,90.081 157.100,89.157 159.500 M277.000 160.000 C 277.341 160.660,277.711 161.200,277.821 161.200 C 277.931 161.200,277.741 160.660,277.400 160.000 C 277.059 159.340,276.689 158.800,276.579 158.800 C 276.469 158.800,276.659 159.340,277.000 160.000 M186.849 160.000 C 186.816 160.330,186.689 161.050,186.567 161.600 C 186.375 162.464,186.407 162.503,186.799 161.888 C 187.048 161.497,187.175 160.777,187.081 160.288 C 186.986 159.800,186.882 159.670,186.849 160.000 M269.049 160.215 C 268.912 160.573,268.818 161.256,268.841 161.733 C 268.867 162.281,269.003 162.086,269.210 161.203 C 269.560 159.716,269.465 159.133,269.049 160.215 M130.468 160.400 C 130.488 161.439,131.118 163.146,131.132 162.200 C 131.138 161.760,130.989 161.040,130.800 160.600 C 130.589 160.110,130.461 160.032,130.468 160.400 M242.849 161.000 C 242.816 161.440,242.696 162.250,242.583 162.800 L 242.377 163.800 242.806 162.819 C 243.042 162.279,243.161 161.469,243.072 161.019 C 242.913 160.221,242.907 160.221,242.849 161.000 M156.880 161.800 C 156.880 162.240,157.024 163.050,157.200 163.600 C 157.454 164.392,157.520 164.433,157.520 163.800 C 157.520 163.360,157.376 162.550,157.200 162.000 C 156.946 161.208,156.880 161.167,156.880 161.800 M311.222 161.800 C 311.216 162.020,311.471 162.920,311.788 163.800 C 312.105 164.680,312.373 165.106,312.382 164.746 C 312.392 164.386,312.137 163.486,311.816 162.746 C 311.494 162.006,311.227 161.580,311.222 161.800 M213.628 163.233 C 213.644 163.765,213.819 164.560,214.019 165.000 C 214.271 165.558,214.307 165.315,214.138 164.200 C 213.855 162.343,213.587 161.836,213.628 163.233 M268.249 163.415 C 268.112 163.773,268.016 164.456,268.036 164.933 C 268.062 165.547,268.185 165.408,268.459 164.456 C 268.857 163.072,268.694 162.258,268.249 163.415 M131.268 163.600 C 131.288 164.639,131.918 166.346,131.932 165.400 C 131.938 164.960,131.789 164.240,131.600 163.800 C 131.389 163.310,131.261 163.232,131.268 163.600 M185.850 164.450 C 185.517 166.117,185.840 166.440,186.200 164.800 C 186.352 164.109,186.393 163.459,186.291 163.358 C 186.189 163.256,185.991 163.747,185.850 164.450 M242.049 164.600 C 242.016 165.040,241.896 165.850,241.783 166.400 L 241.577 167.400 242.006 166.419 C 242.242 165.879,242.361 165.069,242.272 164.619 C 242.113 163.821,242.107 163.821,242.049 164.600 M279.807 165.479 C 280.407 166.914,280.800 167.562,280.800 167.116 C 280.800 166.684,279.585 164.000,279.389 164.000 C 279.279 164.000,279.467 164.666,279.807 165.479 M157.628 165.633 C 157.644 166.165,157.819 166.960,158.019 167.400 C 158.271 167.958,158.307 167.715,158.138 166.600 C 157.855 164.743,157.587 164.236,157.628 165.633 M214.428 166.833 C 214.444 167.365,214.619 168.160,214.819 168.600 C 215.071 169.158,215.107 168.915,214.938 167.800 C 214.655 165.943,214.387 165.436,214.428 166.833 M267.400 167.200 C 267.248 167.891,267.207 168.541,267.309 168.642 C 267.411 168.744,267.609 168.253,267.750 167.550 C 268.083 165.883,267.760 165.560,267.400 167.200 M132.068 166.800 C 132.088 167.839,132.718 169.546,132.732 168.600 C 132.738 168.160,132.589 167.440,132.400 167.000 C 132.189 166.510,132.061 166.432,132.068 166.800 M185.249 167.000 C 185.216 167.440,185.096 168.250,184.983 168.800 L 184.777 169.800 185.206 168.819 C 185.442 168.279,185.561 167.469,185.472 167.019 C 185.313 166.221,185.307 166.221,185.249 167.000 M241.249 168.200 C 241.216 168.640,241.096 169.450,240.983 170.000 L 240.777 171.000 241.206 170.019 C 241.442 169.479,241.561 168.669,241.472 168.219 C 241.313 167.421,241.307 167.421,241.249 168.200 M281.513 169.419 C 281.884 170.420,282.239 171.082,282.303 170.891 C 282.431 170.506,281.293 167.600,281.014 167.600 C 280.917 167.600,281.142 168.419,281.513 169.419 M86.046 168.467 C 86.021 168.834,85.896 169.464,85.770 169.867 C 85.552 170.562,85.563 170.563,85.997 169.887 C 86.248 169.496,86.373 168.866,86.273 168.487 C 86.111 167.868,86.088 167.866,86.046 168.467 M158.428 169.233 C 158.444 169.765,158.619 170.560,158.819 171.000 C 159.071 171.558,159.107 171.315,158.938 170.200 C 158.655 168.343,158.387 167.836,158.428 169.233 M266.600 170.400 C 266.448 171.091,266.407 171.741,266.509 171.842 C 266.611 171.944,266.809 171.453,266.950 170.750 C 267.283 169.083,266.960 168.760,266.600 170.400 M132.868 170.000 C 132.888 171.039,133.518 172.746,133.532 171.800 C 133.538 171.360,133.389 170.640,133.200 170.200 C 132.989 169.710,132.861 169.632,132.868 170.000 M215.228 170.433 C 215.244 170.965,215.419 171.760,215.619 172.200 C 215.871 172.758,215.907 172.515,215.738 171.400 C 215.455 169.543,215.187 169.036,215.228 170.433 M184.250 171.250 C 183.917 172.917,184.240 173.240,184.600 171.600 C 184.752 170.909,184.793 170.259,184.691 170.158 C 184.589 170.056,184.391 170.547,184.250 171.250 M116.955 171.500 C 116.834 171.885,116.570 172.613,116.367 173.119 C 116.165 173.624,116.011 174.254,116.025 174.519 C 116.039 174.783,116.238 174.550,116.466 174.000 C 117.097 172.480,117.567 170.800,117.360 170.800 C 117.258 170.800,117.076 171.115,116.955 171.500 M240.449 171.800 C 240.416 172.240,240.296 173.050,240.183 173.600 L 239.977 174.600 240.406 173.619 C 240.642 173.079,240.761 172.269,240.672 171.819 C 240.513 171.021,240.507 171.021,240.449 171.800 M282.837 172.827 C 283.070 173.582,283.440 174.802,283.660 175.538 C 283.879 176.273,284.137 176.796,284.234 176.699 C 284.454 176.479,283.183 172.334,282.740 171.827 C 282.561 171.622,282.604 172.072,282.837 172.827 M159.228 172.833 C 159.244 173.365,159.419 174.160,159.619 174.600 C 159.871 175.158,159.907 174.915,159.738 173.800 C 159.455 171.943,159.187 171.436,159.228 172.833 M265.800 173.600 C 265.648 174.291,265.607 174.941,265.709 175.042 C 265.811 175.144,266.009 174.653,266.150 173.950 C 266.483 172.283,266.160 171.960,265.800 173.600 M133.668 173.200 C 133.688 174.239,134.318 175.946,134.332 175.000 C 134.338 174.560,134.189 173.840,134.000 173.400 C 133.789 172.910,133.661 172.832,133.668 173.200 M183.649 173.800 C 183.616 174.240,183.496 175.050,183.383 175.600 L 183.177 176.600 183.606 175.619 C 183.842 175.079,183.961 174.269,183.872 173.819 C 183.713 173.021,183.707 173.021,183.649 173.800 M216.068 174.000 C 216.062 174.550,216.211 175.360,216.400 175.800 L 216.744 176.600 216.732 175.800 C 216.726 175.360,216.576 174.550,216.400 174.000 L 216.080 173.000 216.068 174.000 M239.649 175.400 C 239.616 175.840,239.496 176.650,239.383 177.200 L 239.177 178.200 239.606 177.219 C 239.842 176.679,239.961 175.869,239.872 175.419 C 239.713 174.621,239.707 174.621,239.649 175.400 M83.856 176.484 C 83.721 176.988,83.628 177.850,83.649 178.400 C 83.672 178.989,83.831 178.671,84.036 177.625 C 84.403 175.752,84.273 174.927,83.856 176.484 M160.028 176.433 C 160.044 176.965,160.219 177.760,160.419 178.200 C 160.671 178.758,160.707 178.515,160.538 177.400 C 160.255 175.543,159.987 175.036,160.028 176.433 M265.000 176.800 C 264.848 177.491,264.807 178.141,264.909 178.242 C 265.011 178.344,265.209 177.853,265.350 177.150 C 265.683 175.483,265.360 175.160,265.000 176.800 M115.246 176.467 C 115.221 176.834,115.096 177.464,114.970 177.867 C 114.752 178.562,114.763 178.563,115.197 177.887 C 115.448 177.496,115.573 176.866,115.473 176.487 C 115.311 175.868,115.288 175.866,115.246 176.467 M134.468 176.400 C 134.488 177.439,135.118 179.146,135.132 178.200 C 135.138 177.760,134.989 177.040,134.800 176.600 C 134.589 176.110,134.461 176.032,134.468 176.400 M182.650 178.050 C 182.317 179.717,182.640 180.040,183.000 178.400 C 183.152 177.709,183.193 177.059,183.091 176.958 C 182.989 176.856,182.791 177.347,182.650 178.050 M216.868 177.400 C 216.862 177.840,217.011 178.560,217.200 179.000 C 217.638 180.019,217.638 178.968,217.200 177.600 C 216.943 176.796,216.877 176.757,216.868 177.400 M284.406 177.833 C 284.409 178.255,284.595 178.870,284.818 179.200 C 285.115 179.638,285.152 179.476,284.956 178.600 C 284.627 177.129,284.398 176.810,284.406 177.833 M238.849 179.000 C 238.816 179.440,238.696 180.250,238.583 180.800 L 238.377 181.800 238.806 180.819 C 239.042 180.279,239.161 179.469,239.072 179.019 C 238.913 178.221,238.907 178.221,238.849 179.000 M316.093 179.600 C 316.093 180.370,316.175 180.685,316.276 180.300 C 316.376 179.915,316.376 179.285,316.276 178.900 C 316.175 178.515,316.093 178.830,316.093 179.600 M114.446 179.267 C 114.421 179.634,114.296 180.264,114.170 180.667 C 113.952 181.362,113.963 181.363,114.397 180.687 C 114.648 180.296,114.773 179.666,114.673 179.287 C 114.511 178.668,114.488 178.666,114.446 179.267 M264.200 180.000 C 264.048 180.691,264.007 181.341,264.109 181.442 C 264.211 181.544,264.409 181.053,264.550 180.350 C 264.883 178.683,264.560 178.360,264.200 180.000 M135.268 179.600 C 135.288 180.639,135.918 182.346,135.932 181.400 C 135.938 180.960,135.789 180.240,135.600 179.800 C 135.389 179.310,135.261 179.232,135.268 179.600 M160.868 180.400 C 160.862 180.950,161.011 181.760,161.200 182.200 L 161.544 183.000 161.532 182.200 C 161.526 181.760,161.376 180.950,161.200 180.400 L 160.880 179.400 160.868 180.400 M182.049 180.600 C 182.016 181.040,181.896 181.850,181.783 182.400 L 181.577 183.400 182.006 182.419 C 182.242 181.879,182.361 181.069,182.272 180.619 C 182.113 179.821,182.107 179.821,182.049 180.600 M217.668 181.000 C 217.662 181.440,217.811 182.160,218.000 182.600 C 218.438 183.619,218.438 182.568,218.000 181.200 C 217.743 180.396,217.677 180.357,217.668 181.000 M82.893 182.000 C 82.893 182.770,82.975 183.085,83.076 182.700 C 83.176 182.315,83.176 181.685,83.076 181.300 C 82.975 180.915,82.893 181.230,82.893 182.000 M316.688 183.200 C 316.811 184.410,316.977 185.475,317.056 185.567 C 317.353 185.911,317.130 182.567,316.804 181.800 C 316.592 181.302,316.549 181.831,316.688 183.200 M238.049 182.600 C 238.016 183.040,237.896 183.850,237.783 184.400 L 237.577 185.400 238.006 184.419 C 238.242 183.879,238.361 183.069,238.272 182.619 C 238.113 181.821,238.107 181.821,238.049 182.600 M263.449 183.015 C 263.312 183.373,263.218 184.056,263.241 184.533 C 263.267 185.081,263.403 184.886,263.610 184.003 C 263.960 182.516,263.865 181.933,263.449 183.015 M136.258 184.000 C 136.575 185.725,136.802 186.051,136.794 184.767 C 136.791 184.235,136.611 183.530,136.394 183.200 C 136.118 182.778,136.077 183.015,136.258 184.000 M161.628 184.033 C 161.644 184.565,161.819 185.360,162.019 185.800 C 162.271 186.358,162.307 186.115,162.138 185.000 C 161.855 183.143,161.587 182.636,161.628 184.033 M181.249 184.000 C 181.216 184.330,181.089 185.050,180.967 185.600 C 180.775 186.464,180.807 186.503,181.199 185.888 C 181.448 185.497,181.575 184.777,181.481 184.288 C 181.386 183.800,181.282 183.670,181.249 184.000 M218.428 184.433 C 218.444 184.965,218.619 185.760,218.819 186.200 C 219.071 186.758,219.107 186.515,218.938 185.400 C 218.655 183.543,218.387 183.036,218.428 184.433 M112.893 186.400 C 112.893 187.170,112.975 187.485,113.076 187.100 C 113.176 186.715,113.176 186.085,113.076 185.700 C 112.975 185.315,112.893 185.630,112.893 186.400 M82.109 187.200 C 82.109 188.190,82.187 188.595,82.282 188.100 C 82.378 187.605,82.378 186.795,82.282 186.300 C 82.187 185.805,82.109 186.210,82.109 187.200 M262.649 186.215 C 262.512 186.573,262.418 187.256,262.441 187.733 C 262.467 188.281,262.603 188.086,262.810 187.203 C 263.160 185.716,263.065 185.133,262.649 186.215 M137.058 187.200 C 137.375 188.925,137.602 189.251,137.594 187.967 C 137.591 187.435,137.411 186.730,137.194 186.400 C 136.918 185.978,136.877 186.215,137.058 187.200 M237.050 187.250 C 236.717 188.917,237.040 189.240,237.400 187.600 C 237.552 186.909,237.593 186.259,237.491 186.158 C 237.389 186.056,237.191 186.547,237.050 187.250 M162.428 187.633 C 162.444 188.165,162.619 188.960,162.819 189.400 C 163.071 189.958,163.107 189.715,162.938 188.600 C 162.655 186.743,162.387 186.236,162.428 187.633 M180.250 188.450 C 179.917 190.117,180.240 190.440,180.600 188.800 C 180.752 188.109,180.793 187.459,180.691 187.358 C 180.589 187.256,180.391 187.747,180.250 188.450 M219.228 188.033 C 219.244 188.565,219.419 189.360,219.619 189.800 C 219.871 190.358,219.907 190.115,219.738 189.000 C 219.455 187.143,219.187 186.636,219.228 188.033 M286.901 188.600 C 286.905 189.480,286.987 189.793,287.083 189.295 C 287.179 188.798,287.175 188.078,287.075 187.695 C 286.975 187.313,286.896 187.720,286.901 188.600 M317.724 190.200 C 317.726 191.520,317.801 192.012,317.890 191.293 C 317.979 190.574,317.977 189.494,317.886 188.893 C 317.795 188.292,317.722 188.880,317.724 190.200 M261.849 189.415 C 261.712 189.773,261.616 190.456,261.636 190.933 C 261.662 191.547,261.785 191.408,262.059 190.456 C 262.457 189.072,262.294 188.258,261.849 189.415 M137.646 189.600 C 137.665 189.930,137.824 190.650,138.000 191.200 L 138.320 192.200 138.354 191.200 C 138.373 190.650,138.213 189.930,138.000 189.600 C 137.655 189.067,137.616 189.067,137.646 189.600 M112.120 191.600 C 112.120 192.810,112.195 193.305,112.287 192.700 C 112.378 192.095,112.378 191.105,112.287 190.500 C 112.195 189.895,112.120 190.390,112.120 191.600 M236.250 190.850 C 235.917 192.517,236.240 192.840,236.600 191.200 C 236.752 190.509,236.793 189.859,236.691 189.758 C 236.589 189.656,236.391 190.147,236.250 190.850 M163.228 191.233 C 163.244 191.765,163.419 192.560,163.619 193.000 C 163.871 193.558,163.907 193.315,163.738 192.200 C 163.455 190.343,163.187 189.836,163.228 191.233 M179.649 190.800 C 179.616 191.130,179.489 191.850,179.367 192.400 C 179.175 193.264,179.207 193.303,179.599 192.688 C 179.848 192.297,179.975 191.577,179.881 191.088 C 179.786 190.600,179.682 190.470,179.649 190.800 M220.028 191.633 C 220.044 192.165,220.219 192.960,220.419 193.400 C 220.671 193.958,220.707 193.715,220.538 192.600 C 220.255 190.743,219.987 190.236,220.028 191.633 M81.375 202.800 C 81.375 208.850,81.431 211.325,81.499 208.300 C 81.567 205.275,81.567 200.325,81.499 197.300 C 81.431 194.275,81.375 196.750,81.375 202.800 M261.000 193.200 C 260.848 193.891,260.807 194.541,260.909 194.642 C 261.011 194.744,261.209 194.253,261.350 193.550 C 261.683 191.883,261.360 191.560,261.000 193.200 M138.446 192.800 C 138.465 193.130,138.624 193.850,138.800 194.400 L 139.120 195.400 139.154 194.400 C 139.173 193.850,139.013 193.130,138.800 192.800 C 138.455 192.267,138.416 192.267,138.446 192.800 M199.639 193.836 C 199.400 194.696,199.224 195.850,199.249 196.400 C 199.284 197.194,199.328 197.235,199.462 196.600 C 200.060 193.773,200.105 193.697,200.418 195.000 L 200.705 196.200 200.747 194.800 C 200.813 192.555,200.154 191.981,199.639 193.836 M287.731 195.400 C 287.733 196.940,287.805 197.521,287.892 196.691 C 287.979 195.861,287.977 194.601,287.889 193.891 C 287.800 193.181,287.729 193.860,287.731 195.400 M235.450 194.450 C 235.117 196.117,235.440 196.440,235.800 194.800 C 235.952 194.109,235.993 193.459,235.891 193.358 C 235.789 193.256,235.591 193.747,235.450 194.450 M318.101 194.600 C 318.105 195.480,318.187 195.793,318.283 195.295 C 318.379 194.798,318.375 194.078,318.275 193.695 C 318.175 193.313,318.096 193.720,318.101 194.600 M178.650 195.250 C 178.317 196.917,178.640 197.240,179.000 195.600 C 179.152 194.909,179.193 194.259,179.091 194.158 C 178.989 194.056,178.791 194.547,178.650 195.250 M164.080 195.000 C 164.080 195.440,164.224 196.250,164.400 196.800 C 164.654 197.592,164.720 197.633,164.720 197.000 C 164.720 196.560,164.576 195.750,164.400 195.200 C 164.146 194.408,164.080 194.367,164.080 195.000 M220.846 195.200 C 220.827 195.750,220.987 196.470,221.200 196.800 C 221.694 197.564,221.694 196.742,221.200 195.200 L 220.880 194.200 220.846 195.200 M260.200 196.400 C 260.048 197.091,260.007 197.741,260.109 197.842 C 260.211 197.944,260.409 197.453,260.550 196.750 C 260.883 195.083,260.560 194.760,260.200 196.400 M139.268 196.000 C 139.288 197.039,139.918 198.746,139.932 197.800 C 139.938 197.360,139.789 196.640,139.600 196.200 C 139.389 195.710,139.261 195.632,139.268 196.000 M200.863 197.000 C 200.854 197.440,200.995 198.520,201.177 199.400 L 201.508 201.000 201.514 199.600 C 201.517 198.830,201.376 197.750,201.200 197.200 C 200.941 196.391,200.877 196.353,200.863 197.000 M234.622 198.222 C 234.472 199.025,234.438 199.772,234.548 199.882 C 234.658 199.992,234.872 199.425,235.022 198.622 C 235.173 197.819,235.206 197.073,235.096 196.963 C 234.986 196.853,234.773 197.419,234.622 198.222 M318.566 204.000 C 318.566 208.070,318.625 209.735,318.698 207.700 C 318.771 205.665,318.771 202.335,318.698 200.300 C 318.625 198.265,318.566 199.930,318.566 204.000 M111.358 202.600 C 111.358 205.680,111.421 206.887,111.497 205.282 C 111.573 203.678,111.573 201.158,111.496 199.682 C 111.419 198.207,111.357 199.520,111.358 202.600 M177.850 198.450 C 177.517 200.117,177.840 200.440,178.200 198.800 C 178.352 198.109,178.393 197.459,178.291 197.358 C 178.189 197.256,177.991 197.747,177.850 198.450 M164.868 198.800 C 164.862 199.350,165.011 200.160,165.200 200.600 L 165.544 201.400 165.532 200.600 C 165.526 200.160,165.376 199.350,165.200 198.800 L 164.880 197.800 164.868 198.800 M198.676 198.810 C 198.530 199.355,198.427 200.250,198.446 200.800 C 198.471 201.518,198.584 201.357,198.849 200.227 C 199.255 198.495,199.100 197.225,198.676 198.810 M221.668 198.600 C 221.662 199.040,221.811 199.760,222.000 200.200 C 222.438 201.219,222.438 200.168,222.000 198.800 C 221.743 197.996,221.677 197.957,221.668 198.600 M259.400 199.600 C 259.248 200.291,259.207 200.941,259.309 201.042 C 259.411 201.144,259.609 200.653,259.750 199.950 C 260.083 198.283,259.760 197.960,259.400 199.600 M140.068 199.200 C 140.088 200.239,140.718 201.946,140.732 201.000 C 140.738 200.560,140.589 199.840,140.400 199.400 C 140.189 198.910,140.061 198.832,140.068 199.200 M288.109 200.400 C 288.109 201.390,288.187 201.795,288.282 201.300 C 288.378 200.805,288.378 199.995,288.282 199.500 C 288.187 199.005,288.109 199.410,288.109 200.400 M233.822 201.822 C 233.672 202.625,233.638 203.372,233.748 203.482 C 233.858 203.592,234.072 203.025,234.222 202.222 C 234.373 201.419,234.406 200.673,234.296 200.563 C 234.186 200.453,233.973 201.019,233.822 201.822 M177.050 202.050 C 176.717 203.717,177.040 204.040,177.400 202.400 C 177.552 201.709,177.593 201.059,177.491 200.958 C 177.389 200.856,177.191 201.347,177.050 202.050 M201.872 203.000 C 201.999 204.100,202.169 205.075,202.251 205.167 C 202.532 205.482,202.320 202.999,201.980 202.000 C 201.751 201.326,201.716 201.651,201.872 203.000 M165.628 202.433 C 165.644 202.965,165.819 203.760,166.019 204.200 C 166.271 204.758,166.307 204.515,166.138 203.400 C 165.855 201.543,165.587 201.036,165.628 202.433 M222.468 202.200 C 222.462 202.640,222.611 203.360,222.800 203.800 C 223.238 204.819,223.238 203.768,222.800 202.400 C 222.543 201.596,222.477 201.557,222.468 202.200 M258.600 202.800 C 258.448 203.491,258.407 204.141,258.509 204.242 C 258.611 204.344,258.809 203.853,258.950 203.150 C 259.283 201.483,258.960 201.160,258.600 202.800 M140.868 202.400 C 140.888 203.439,141.518 205.146,141.532 204.200 C 141.538 203.760,141.389 203.040,141.200 202.600 C 140.989 202.110,140.861 202.032,140.868 202.400 M197.856 203.284 C 197.721 203.788,197.628 204.650,197.649 205.200 C 197.672 205.789,197.831 205.471,198.036 204.425 C 198.403 202.552,198.273 201.727,197.856 203.284 M233.249 204.600 C 233.216 205.040,233.096 205.850,232.983 206.400 L 232.777 207.400 233.206 206.419 C 233.442 205.879,233.561 205.069,233.472 204.619 C 233.313 203.821,233.307 203.821,233.249 204.600 M176.222 205.822 C 176.072 206.625,176.028 207.362,176.126 207.460 C 176.224 207.557,176.427 206.981,176.578 206.178 C 176.728 205.375,176.772 204.638,176.674 204.540 C 176.576 204.443,176.373 205.019,176.222 205.822 M288.128 206.800 C 288.128 208.230,288.201 208.815,288.289 208.100 C 288.378 207.385,288.378 206.215,288.289 205.500 C 288.201 204.785,288.128 205.370,288.128 206.800 M257.800 206.000 C 257.648 206.691,257.607 207.341,257.709 207.442 C 257.811 207.544,258.009 207.053,258.150 206.350 C 258.483 204.683,258.160 204.360,257.800 206.000 M141.668 205.600 C 141.688 206.639,142.318 208.346,142.332 207.400 C 142.338 206.960,142.189 206.240,142.000 205.800 C 141.789 205.310,141.661 205.232,141.668 205.600 M166.428 206.033 C 166.444 206.565,166.619 207.360,166.819 207.800 C 167.071 208.358,167.107 208.115,166.938 207.000 C 166.655 205.143,166.387 204.636,166.428 206.033 M223.228 206.033 C 223.244 206.565,223.419 207.360,223.619 207.800 C 223.871 208.358,223.907 208.115,223.738 207.000 C 223.455 205.143,223.187 204.636,223.228 206.033 M202.487 206.200 C 202.491 206.640,202.632 207.540,202.800 208.200 C 203.074 209.278,203.106 209.298,203.113 208.400 C 203.117 207.850,202.976 206.950,202.800 206.400 C 202.549 205.616,202.481 205.573,202.487 206.200 M197.056 207.284 C 196.921 207.788,196.827 208.560,196.846 209.000 C 196.865 209.440,197.045 209.098,197.246 208.240 C 197.636 206.578,197.470 205.740,197.056 207.284 M232.449 208.200 C 232.416 208.640,232.296 209.450,232.183 210.000 L 231.977 211.000 232.406 210.019 C 232.642 209.479,232.761 208.669,232.672 208.219 C 232.513 207.421,232.507 207.421,232.449 208.200 M175.440 209.640 C 175.293 210.557,175.252 211.385,175.347 211.480 C 175.442 211.576,175.646 210.910,175.800 210.000 C 175.954 209.090,175.996 208.262,175.893 208.160 C 175.790 208.057,175.587 208.723,175.440 209.640 M142.468 208.800 C 142.488 209.839,143.118 211.546,143.132 210.600 C 143.138 210.160,142.989 209.440,142.800 209.000 C 142.589 208.510,142.461 208.432,142.468 208.800 M257.049 209.015 C 256.912 209.373,256.818 210.056,256.841 210.533 C 256.867 211.081,257.003 210.886,257.210 210.003 C 257.560 208.516,257.465 207.933,257.049 209.015 M111.693 210.000 C 111.693 210.770,111.775 211.085,111.876 210.700 C 111.976 210.315,111.976 209.685,111.876 209.300 C 111.775 208.915,111.693 209.230,111.693 210.000 M167.228 209.633 C 167.244 210.165,167.419 210.960,167.619 211.400 C 167.871 211.958,167.907 211.715,167.738 210.600 C 167.455 208.743,167.187 208.236,167.228 209.633 M224.028 209.833 C 224.044 210.475,224.216 211.360,224.410 211.800 C 224.647 212.334,224.686 212.002,224.527 210.800 C 224.246 208.680,223.988 208.180,224.028 209.833 M203.462 211.400 C 203.596 212.280,203.772 213.075,203.853 213.167 C 204.156 213.510,203.929 211.368,203.581 210.600 C 203.329 210.042,203.293 210.285,203.462 211.400 M287.724 212.200 C 287.726 213.520,287.801 214.012,287.890 213.293 C 287.979 212.574,287.977 211.494,287.886 210.893 C 287.795 210.292,287.722 210.880,287.724 212.200 M196.256 211.284 C 196.121 211.788,196.027 212.560,196.046 213.000 C 196.065 213.440,196.245 213.098,196.446 212.240 C 196.836 210.578,196.670 209.740,196.256 211.284 M231.654 212.000 C 231.619 212.550,231.496 213.450,231.383 214.000 L 231.177 215.000 231.607 214.015 C 231.843 213.474,231.965 212.574,231.878 212.015 L 231.720 211.000 231.654 212.000 M143.268 212.000 C 143.288 213.039,143.918 214.746,143.932 213.800 C 143.938 213.360,143.789 212.640,143.600 212.200 C 143.389 211.710,143.261 211.632,143.268 212.000 M256.249 212.215 C 256.112 212.573,256.018 213.256,256.041 213.733 C 256.067 214.281,256.203 214.086,256.410 213.203 C 256.760 211.716,256.665 211.133,256.249 212.215 M112.120 214.000 C 112.120 215.210,112.195 215.705,112.287 215.100 C 112.378 214.495,112.378 213.505,112.287 212.900 C 112.195 212.295,112.120 212.790,112.120 214.000 M174.640 213.640 C 174.493 214.557,174.452 215.385,174.547 215.480 C 174.642 215.576,174.846 214.910,175.000 214.000 C 175.154 213.090,175.196 212.262,175.093 212.160 C 174.990 212.057,174.787 212.723,174.640 213.640 M168.068 213.600 C 168.062 214.150,168.211 214.960,168.400 215.400 L 168.744 216.200 168.732 215.400 C 168.726 214.960,168.576 214.150,168.400 213.600 L 168.080 212.600 168.068 213.600 M224.828 214.033 C 224.844 214.565,225.019 215.360,225.219 215.800 C 225.471 216.358,225.507 216.115,225.338 215.000 C 225.055 213.143,224.787 212.636,224.828 214.033 M204.262 215.000 C 204.396 215.880,204.572 216.675,204.653 216.767 C 204.956 217.110,204.729 214.968,204.381 214.200 C 204.129 213.642,204.093 213.885,204.262 215.000 M195.456 214.884 C 195.321 215.388,195.227 216.160,195.246 216.600 C 195.265 217.040,195.445 216.698,195.646 215.840 C 196.036 214.178,195.870 213.340,195.456 214.884 M317.724 216.600 C 317.726 217.920,317.801 218.412,317.890 217.693 C 317.979 216.974,317.977 215.894,317.886 215.293 C 317.795 214.692,317.722 215.280,317.724 216.600 M144.068 215.200 C 144.088 216.239,144.718 217.946,144.732 217.000 C 144.738 216.560,144.589 215.840,144.400 215.400 C 144.189 214.910,144.061 214.832,144.068 215.200 M255.449 215.415 C 255.312 215.773,255.216 216.456,255.236 216.933 C 255.262 217.547,255.385 217.408,255.659 216.456 C 256.057 215.072,255.894 214.258,255.449 215.415 M230.654 216.754 C 230.500 217.718,230.458 218.591,230.561 218.694 C 230.830 218.963,231.315 216.145,231.107 215.522 C 231.012 215.236,230.808 215.790,230.654 216.754 M174.054 216.800 C 174.019 217.350,173.896 218.250,173.783 218.800 L 173.577 219.800 174.007 218.815 C 174.243 218.274,174.365 217.374,174.278 216.815 L 174.120 215.800 174.054 216.800 M82.120 218.400 C 82.120 219.610,82.195 220.105,82.287 219.500 C 82.378 218.895,82.378 217.905,82.287 217.300 C 82.195 216.695,82.120 217.190,82.120 218.400 M168.887 217.200 C 168.883 217.750,169.024 218.650,169.200 219.200 C 169.631 220.544,169.631 219.092,169.200 217.400 C 168.926 216.322,168.894 216.302,168.887 217.200 M286.901 217.800 C 286.905 218.680,286.987 218.993,287.083 218.495 C 287.179 217.998,287.175 217.278,287.075 216.895 C 286.975 216.513,286.896 216.920,286.901 217.800 M205.062 218.600 C 205.196 219.480,205.372 220.275,205.453 220.367 C 205.756 220.710,205.529 218.568,205.181 217.800 C 204.929 217.242,204.893 217.485,205.062 218.600 M225.675 218.200 C 225.665 218.860,225.811 219.760,226.000 220.200 L 226.344 221.000 226.325 220.200 C 226.314 219.760,226.168 218.860,226.000 218.200 L 225.695 217.000 225.675 218.200 M194.656 218.484 C 194.521 218.988,194.427 219.760,194.446 220.200 C 194.465 220.640,194.645 220.298,194.846 219.440 C 195.236 217.778,195.070 216.940,194.656 218.484 M112.893 219.200 C 112.893 219.970,112.975 220.285,113.076 219.900 C 113.176 219.515,113.176 218.885,113.076 218.500 C 112.975 218.115,112.893 218.430,112.893 219.200 M144.868 218.400 C 144.888 219.439,145.518 221.146,145.532 220.200 C 145.538 219.760,145.389 219.040,145.200 218.600 C 144.989 218.110,144.861 218.032,144.868 218.400 M254.600 219.200 C 254.448 219.891,254.407 220.541,254.509 220.642 C 254.611 220.744,254.809 220.253,254.950 219.550 C 255.091 218.847,255.131 218.198,255.041 218.108 C 254.950 218.017,254.752 218.509,254.600 219.200 M230.054 220.000 C 230.019 220.550,229.896 221.450,229.783 222.000 L 229.577 223.000 230.007 222.015 C 230.243 221.474,230.365 220.574,230.278 220.015 L 230.120 219.000 230.054 220.000 M169.675 221.400 C 169.665 222.060,169.811 222.960,170.000 223.400 L 170.344 224.200 170.325 223.400 C 170.314 222.960,170.168 222.060,170.000 221.400 L 169.695 220.200 169.675 221.400 M173.055 222.255 C 172.913 223.286,172.874 224.208,172.969 224.302 C 173.063 224.396,173.265 223.639,173.418 222.618 C 173.571 221.598,173.610 220.676,173.504 220.571 C 173.398 220.465,173.196 221.223,173.055 222.255 M205.862 222.200 C 205.996 223.080,206.172 223.875,206.253 223.967 C 206.556 224.310,206.329 222.168,205.981 221.400 C 205.729 220.842,205.693 221.085,205.862 222.200 M285.896 222.200 C 285.742 223.080,285.520 224.340,285.403 225.000 C 285.285 225.660,285.472 225.328,285.818 224.263 C 286.163 223.197,286.385 221.937,286.311 221.463 C 286.222 220.892,286.081 221.141,285.896 222.200 M316.901 222.200 C 316.905 223.080,316.987 223.393,317.083 222.895 C 317.179 222.398,317.175 221.678,317.075 221.295 C 316.975 220.913,316.896 221.320,316.901 222.200 M145.668 221.600 C 145.688 222.639,146.318 224.346,146.332 223.400 C 146.338 222.960,146.189 222.240,146.000 221.800 C 145.789 221.310,145.661 221.232,145.668 221.600 M193.856 222.084 C 193.721 222.588,193.627 223.360,193.646 223.800 C 193.665 224.240,193.845 223.898,194.046 223.040 C 194.436 221.378,194.270 220.540,193.856 222.084 M253.800 222.400 C 253.648 223.091,253.607 223.741,253.709 223.842 C 253.811 223.944,254.009 223.453,254.150 222.750 C 254.291 222.047,254.331 221.398,254.241 221.308 C 254.150 221.217,253.952 221.709,253.800 222.400 M226.475 222.600 C 226.465 223.260,226.611 224.160,226.800 224.600 L 227.144 225.400 227.125 224.600 C 227.114 224.160,226.968 223.260,226.800 222.600 L 226.495 221.400 226.475 222.600 M82.893 223.600 C 82.893 224.370,82.975 224.685,83.076 224.300 C 83.176 223.915,83.176 223.285,83.076 222.900 C 82.975 222.515,82.893 222.830,82.893 223.600 M229.055 225.455 C 228.913 226.486,228.874 227.408,228.969 227.502 C 229.063 227.596,229.265 226.839,229.418 225.818 C 229.571 224.798,229.610 223.876,229.504 223.771 C 229.398 223.665,229.196 224.423,229.055 225.455 M114.244 225.400 C 114.573 226.871,114.802 227.190,114.794 226.167 C 114.791 225.745,114.605 225.130,114.382 224.800 C 114.085 224.362,114.048 224.524,114.244 225.400 M206.662 225.800 C 206.796 226.680,206.972 227.475,207.053 227.567 C 207.356 227.910,207.129 225.768,206.781 225.000 C 206.529 224.442,206.493 224.685,206.662 225.800 M253.000 225.600 C 252.848 226.291,252.807 226.941,252.909 227.042 C 253.011 227.144,253.209 226.653,253.350 225.950 C 253.491 225.247,253.531 224.598,253.441 224.508 C 253.350 224.417,253.152 224.909,253.000 225.600 M146.658 226.000 C 146.975 227.725,147.202 228.051,147.194 226.767 C 147.191 226.235,147.011 225.530,146.794 225.200 C 146.518 224.778,146.477 225.015,146.658 226.000 M170.487 225.600 C 170.483 226.150,170.624 227.050,170.800 227.600 C 171.231 228.944,171.231 227.492,170.800 225.800 C 170.526 224.722,170.494 224.702,170.487 225.600 M172.460 225.650 C 172.427 226.228,172.311 227.308,172.201 228.050 L 172.003 229.400 172.424 228.057 C 172.655 227.319,172.772 226.239,172.682 225.657 L 172.520 224.600 172.460 225.650 M193.056 225.684 C 192.921 226.188,192.827 226.960,192.846 227.400 C 192.865 227.840,193.045 227.498,193.246 226.640 C 193.636 224.978,193.470 224.140,193.056 225.684 M316.064 226.267 C 316.029 226.964,315.896 227.864,315.770 228.267 C 315.553 228.959,315.565 228.960,315.994 228.291 C 316.245 227.902,316.377 227.002,316.289 226.291 L 316.128 225.000 316.064 226.267 M227.232 226.723 C 227.182 228.167,228.053 231.214,228.446 230.971 C 228.641 230.851,228.782 230.088,228.760 229.276 C 228.725 227.972,228.685 227.917,228.419 228.800 C 228.142 229.722,228.096 229.675,227.826 228.200 C 227.430 226.027,227.269 225.627,227.232 226.723 M284.649 227.015 C 284.512 227.373,284.415 227.966,284.434 228.333 C 284.453 228.700,284.627 228.469,284.821 227.820 C 285.198 226.558,285.065 225.933,284.649 227.015 M115.044 228.200 C 115.373 229.671,115.602 229.990,115.594 228.967 C 115.591 228.545,115.405 227.930,115.182 227.600 C 114.885 227.162,114.848 227.324,115.044 228.200 M252.200 228.800 C 252.048 229.491,252.007 230.141,252.109 230.242 C 252.211 230.344,252.409 229.853,252.550 229.150 C 252.691 228.447,252.731 227.798,252.641 227.708 C 252.550 227.617,252.352 228.109,252.200 228.800 M147.458 229.200 C 147.775 230.925,148.002 231.251,147.994 229.967 C 147.991 229.435,147.811 228.730,147.594 228.400 C 147.318 227.978,147.277 228.215,147.458 229.200 M207.268 228.600 C 207.274 229.040,207.424 229.850,207.600 230.400 L 207.920 231.400 207.932 230.400 C 207.938 229.850,207.789 229.040,207.600 228.600 L 207.256 227.800 207.268 228.600 M192.256 229.284 C 192.121 229.788,192.027 230.560,192.046 231.000 C 192.065 231.440,192.245 231.098,192.446 230.240 C 192.836 228.578,192.670 227.740,192.256 229.284 M84.258 230.600 C 84.392 231.480,84.656 232.470,84.844 232.800 C 85.258 233.526,84.834 230.971,84.346 229.800 C 84.136 229.295,84.103 229.591,84.258 230.600 M171.206 230.300 C 171.203 231.015,171.380 231.600,171.600 231.600 C 172.108 231.600,172.108 230.386,171.600 229.600 C 171.306 229.145,171.211 229.314,171.206 230.300 M315.254 229.867 C 315.225 230.344,315.096 231.064,314.970 231.467 C 314.752 232.161,314.764 232.162,315.196 231.488 C 315.447 231.097,315.575 230.377,315.481 229.888 C 315.309 229.001,315.309 229.001,315.254 229.867 M282.730 232.912 C 282.164 234.500,281.306 236.790,280.822 238.000 C 280.339 239.210,280.109 240.020,280.312 239.800 C 280.983 239.073,284.198 230.465,283.907 230.174 C 283.825 230.091,283.295 231.323,282.730 232.912 M251.400 232.000 C 251.248 232.691,251.207 233.341,251.309 233.442 C 251.411 233.544,251.609 233.053,251.750 232.350 C 251.891 231.647,251.931 230.998,251.841 230.908 C 251.750 230.817,251.552 231.309,251.400 232.000 M148.046 231.600 C 148.065 231.930,148.224 232.650,148.400 233.200 L 148.720 234.200 148.754 233.200 C 148.773 232.650,148.613 231.930,148.400 231.600 C 148.055 231.067,148.016 231.067,148.046 231.600 M208.080 232.200 C 208.080 232.640,208.224 233.450,208.400 234.000 C 208.654 234.792,208.720 234.833,208.720 234.200 C 208.720 233.760,208.576 232.950,208.400 232.400 C 208.146 231.608,208.080 231.567,208.080 232.200 M191.456 232.884 C 191.321 233.388,191.227 234.160,191.246 234.600 C 191.265 235.040,191.445 234.698,191.646 233.840 C 192.036 232.178,191.870 231.340,191.456 232.884 M116.825 233.447 C 116.793 234.021,118.422 238.075,118.896 238.600 C 119.095 238.820,118.866 238.010,118.387 236.800 C 116.995 233.281,116.852 232.975,116.825 233.447 M148.846 234.800 C 148.865 235.130,149.024 235.850,149.200 236.400 L 149.520 237.400 149.554 236.400 C 149.573 235.850,149.413 235.130,149.200 234.800 C 148.855 234.267,148.816 234.267,148.846 234.800 M250.649 235.015 C 250.512 235.373,250.418 236.056,250.441 236.533 C 250.467 237.081,250.603 236.886,250.810 236.003 C 251.160 234.516,251.065 233.933,250.649 235.015 M190.656 236.484 C 190.521 236.988,190.427 237.760,190.446 238.200 C 190.465 238.640,190.645 238.298,190.846 237.440 C 191.236 235.778,191.070 234.940,190.656 236.484 M208.868 236.000 C 208.888 237.039,209.518 238.746,209.532 237.800 C 209.538 237.360,209.389 236.640,209.200 236.200 C 208.989 235.710,208.861 235.632,208.868 236.000 M86.006 237.033 C 86.009 237.455,86.195 238.070,86.418 238.400 C 86.715 238.838,86.752 238.676,86.556 237.800 C 86.227 236.329,85.998 236.010,86.006 237.033 M149.668 238.000 C 149.688 239.039,150.318 240.746,150.332 239.800 C 150.338 239.360,150.189 238.640,150.000 238.200 C 149.789 237.710,149.661 237.632,149.668 238.000 M249.849 238.215 C 249.712 238.573,249.618 239.256,249.641 239.733 C 249.667 240.281,249.803 240.086,250.010 239.203 C 250.360 237.716,250.265 237.133,249.849 238.215 M119.228 239.400 C 119.228 239.620,119.486 240.250,119.800 240.800 C 120.114 241.350,120.372 241.620,120.372 241.400 C 120.372 241.180,120.114 240.550,119.800 240.000 C 119.486 239.450,119.228 239.180,119.228 239.400 M189.856 240.084 C 189.721 240.588,189.627 241.360,189.646 241.800 C 189.665 242.240,189.845 241.898,190.046 241.040 C 190.436 239.378,190.270 238.540,189.856 240.084 M209.862 240.600 C 209.996 241.480,210.172 242.275,210.253 242.367 C 210.556 242.710,210.329 240.568,209.981 239.800 C 209.729 239.242,209.693 239.485,209.862 240.600 M87.451 241.574 C 87.827 243.039,88.771 245.086,88.755 244.400 C 88.747 244.070,88.394 243.080,87.971 242.200 C 87.548 241.320,87.314 241.038,87.451 241.574 M150.468 241.200 C 150.488 242.239,151.118 243.946,151.132 243.000 C 151.138 242.560,150.989 241.840,150.800 241.400 C 150.589 240.910,150.461 240.832,150.468 241.200 M249.049 241.415 C 248.912 241.773,248.816 242.456,248.836 242.933 C 248.862 243.547,248.985 243.408,249.259 242.456 C 249.657 241.072,249.494 240.258,249.049 241.415 M189.056 243.684 C 188.921 244.188,188.827 244.960,188.846 245.400 C 188.865 245.840,189.045 245.498,189.246 244.640 C 189.636 242.978,189.470 242.140,189.056 243.684 M210.662 244.200 C 210.796 245.080,210.972 245.875,211.053 245.967 C 211.356 246.310,211.129 244.168,210.781 243.400 C 210.529 242.842,210.493 243.085,210.662 244.200 M310.726 244.514 C 310.376 245.441,309.697 247.190,309.216 248.400 C 308.736 249.610,308.508 250.420,308.710 250.200 C 309.219 249.646,311.742 243.208,311.532 242.999 C 311.439 242.905,311.076 243.587,310.726 244.514 M278.130 243.839 C 277.790 244.723,299.043 266.020,300.197 265.954 C 300.998 265.907,300.998 265.907,300.200 265.721 C 298.875 265.412,278.341 244.718,278.548 243.900 C 278.770 243.024,278.460 242.979,278.130 243.839 M121.925 245.000 C 122.372 245.880,123.033 246.960,123.394 247.400 C 123.755 247.840,123.559 247.300,122.959 246.200 C 121.616 243.738,120.807 242.799,121.925 245.000 M151.268 244.400 C 151.288 245.439,151.918 247.146,151.932 246.200 C 151.938 245.760,151.789 245.040,151.600 244.600 C 151.389 244.110,151.261 244.032,151.268 244.400 M248.200 245.200 C 248.048 245.891,248.007 246.541,248.109 246.642 C 248.211 246.744,248.409 246.253,248.550 245.550 C 248.691 244.847,248.731 244.198,248.641 244.108 C 248.550 244.017,248.352 244.509,248.200 245.200 M188.256 247.284 C 188.121 247.788,188.027 248.560,188.046 249.000 C 188.065 249.440,188.245 249.098,188.446 248.240 C 188.836 246.578,188.670 245.740,188.256 247.284 M211.462 247.800 C 211.596 248.680,211.772 249.475,211.853 249.567 C 212.156 249.910,211.929 247.768,211.581 247.000 C 211.329 246.442,211.293 246.685,211.462 247.800 M152.068 247.600 C 152.088 248.639,152.718 250.346,152.732 249.400 C 152.738 248.960,152.589 248.240,152.400 247.800 C 152.189 247.310,152.061 247.232,152.068 247.600 M199.606 247.900 C 199.611 248.498,199.668 248.512,199.997 248.000 C 200.434 247.319,258.800 305.285,258.800 306.400 C 258.800 307.515,200.434 365.481,199.997 364.800 C 199.668 364.288,199.611 364.302,199.606 364.900 C 199.603 365.285,199.825 365.600,200.101 365.600 C 200.820 365.600,259.200 307.118,259.200 306.398 C 259.200 305.679,200.817 247.200,200.099 247.200 C 199.825 247.200,199.603 247.515,199.606 247.900 M247.400 248.400 C 247.248 249.091,247.207 249.741,247.309 249.842 C 247.411 249.944,247.609 249.453,247.750 248.750 C 247.891 248.047,247.931 247.398,247.841 247.308 C 247.750 247.217,247.552 247.709,247.400 248.400 M91.007 250.679 C 91.607 252.114,92.000 252.762,92.000 252.316 C 92.000 251.884,90.785 249.200,90.589 249.200 C 90.479 249.200,90.667 249.866,91.007 250.679 M187.456 250.884 C 187.321 251.388,187.227 252.160,187.246 252.600 C 187.265 253.040,187.445 252.698,187.646 251.840 C 188.036 250.178,187.870 249.340,187.456 250.884 M212.262 251.400 C 212.396 252.280,212.572 253.075,212.653 253.167 C 212.956 253.510,212.729 251.368,212.381 250.600 C 212.129 250.042,212.093 250.285,212.262 251.400 M125.867 251.606 C 126.259 252.270,126.998 253.305,127.510 253.906 C 128.021 254.508,127.775 253.965,126.963 252.700 C 125.424 250.303,124.628 249.507,125.867 251.606 M152.868 250.800 C 152.888 251.839,153.518 253.546,153.532 252.600 C 153.538 252.160,153.389 251.440,153.200 251.000 C 152.989 250.510,152.861 250.432,152.868 250.800 M246.600 251.600 C 246.448 252.291,246.407 252.941,246.509 253.042 C 246.611 253.144,246.809 252.653,246.950 251.950 C 247.091 251.247,247.131 250.598,247.041 250.508 C 246.950 250.417,246.752 250.909,246.600 251.600 M153.862 254.800 C 154.277 257.321,153.465 257.209,170.549 257.107 L 186.200 257.014 170.436 256.807 L 154.672 256.600 154.152 255.000 C 153.647 253.448,153.638 253.442,153.862 254.800 M186.600 254.800 C 186.448 255.491,186.407 256.141,186.509 256.242 C 186.611 256.344,186.809 255.853,186.950 255.150 C 187.283 253.483,186.960 253.160,186.600 254.800 M212.868 254.000 C 212.888 255.039,213.518 256.746,213.532 255.800 C 213.538 255.360,213.389 254.640,213.200 254.200 C 212.989 253.710,212.861 253.632,212.868 254.000 M245.725 255.100 L 245.370 256.600 229.585 256.807 L 213.800 257.014 229.451 257.107 C 246.448 257.208,245.670 257.311,246.186 254.900 C 246.574 253.085,246.159 253.265,245.725 255.100 M93.079 255.100 C 93.367 255.894,94.400 257.497,94.400 257.150 C 94.400 256.802,93.163 254.400,92.983 254.400 C 92.896 254.400,92.939 254.715,93.079 255.100 M129.024 255.982 C 129.991 257.389,131.599 259.238,131.588 258.931 C 131.581 258.749,130.906 257.872,130.088 256.982 C 129.270 256.093,128.791 255.643,129.024 255.982 M302.240 262.398 C 301.640 263.499,301.236 264.400,301.341 264.400 C 301.608 264.400,303.643 260.710,303.471 260.537 C 303.393 260.460,302.839 261.297,302.240 262.398 M96.415 261.400 C 96.417 261.620,96.786 262.250,97.236 262.800 C 97.779 263.464,97.915 263.531,97.640 263.000 C 96.966 261.695,96.412 260.972,96.415 261.400 M137.978 266.011 C 140.520 268.547,143.410 271.223,144.400 271.956 C 145.910 273.076,145.846 272.980,144.000 271.362 C 142.790 270.301,139.900 267.626,137.578 265.417 L 133.356 261.400 137.978 266.011 M98.612 265.200 C 99.342 266.529,102.838 271.600,103.024 271.600 C 103.247 271.600,99.324 265.631,98.687 265.000 C 98.415 264.731,98.391 264.797,98.612 265.200 M104.175 273.332 C 104.791 274.139,105.376 274.800,105.475 274.800 C 105.753 274.800,104.021 272.460,103.509 272.144 C 103.259 271.989,103.559 272.524,104.175 273.332 M146.400 273.397 C 146.400 273.687,154.439 279.003,156.000 279.745 C 156.770 280.112,157.057 280.184,156.638 279.906 C 151.316 276.375,146.400 273.250,146.400 273.397 M107.352 277.400 C 108.348 278.720,110.354 281.060,111.809 282.600 L 114.455 285.400 111.528 281.991 C 109.917 280.115,107.912 277.775,107.070 276.791 C 105.879 275.397,105.942 275.532,107.352 277.400 M165.800 284.581 C 168.101 285.634,174.430 287.803,176.200 288.146 C 177.905 288.477,176.511 287.909,172.800 286.762 C 171.150 286.251,168.560 285.331,167.045 284.717 C 163.749 283.380,162.997 283.298,165.800 284.581 M119.668 290.505 C 121.975 292.687,125.600 295.737,125.600 295.496 C 125.600 295.398,123.845 293.837,121.700 292.028 C 119.555 290.218,118.640 289.533,119.668 290.505 M185.505 290.283 C 186.002 290.379,186.722 290.375,187.105 290.275 C 187.487 290.175,187.080 290.096,186.200 290.101 C 185.320 290.105,185.007 290.187,185.505 290.283 M192.716 291.097 C 194.099 291.175,196.259 291.174,197.516 291.095 C 198.772 291.016,197.640 290.952,195.000 290.953 C 192.360 290.953,191.332 291.018,192.716 291.097 M127.200 296.810 C 127.970 297.502,129.680 298.780,131.000 299.650 C 133.583 301.351,132.643 300.555,128.431 297.476 C 126.984 296.418,126.430 296.118,127.200 296.810 M136.774 303.524 C 137.309 303.959,138.299 304.619,138.974 304.991 L 140.200 305.667 139.226 304.876 C 138.691 304.441,137.701 303.781,137.026 303.409 L 135.800 302.733 136.774 303.524 M142.800 306.988 C 142.800 307.098,143.880 307.734,145.200 308.400 C 146.520 309.066,147.600 309.522,147.600 309.412 C 147.600 309.302,146.520 308.666,145.200 308.000 C 143.880 307.334,142.800 306.878,142.800 306.988 M150.015 310.742 C 150.932 311.342,155.064 312.916,154.600 312.489 C 154.240 312.157,151.533 311.002,150.000 310.526 C 149.492 310.368,149.494 310.401,150.015 310.742 M158.400 314.231 C 158.400 314.501,160.478 315.256,160.676 315.057 C 160.767 314.967,160.292 314.701,159.620 314.467 C 158.949 314.233,158.400 314.127,158.400 314.231 M171.000 318.175 C 172.100 318.499,173.450 318.752,174.000 318.736 C 175.047 318.707,173.125 318.204,170.400 317.795 C 169.435 317.650,169.622 317.768,171.000 318.175 M176.900 319.476 C 177.285 319.576,177.915 319.576,178.300 319.476 C 178.685 319.375,178.370 319.293,177.600 319.293 C 176.830 319.293,176.515 319.375,176.900 319.476 M181.500 320.282 C 181.995 320.378,182.805 320.378,183.300 320.282 C 183.795 320.187,183.390 320.109,182.400 320.109 C 181.410 320.109,181.005 320.187,181.500 320.282 M187.491 321.089 C 188.201 321.177,189.461 321.179,190.291 321.092 C 191.121 321.005,190.540 320.933,189.000 320.931 C 187.460 320.929,186.781 321.000,187.491 321.089 M193.900 321.489 C 194.615 321.578,195.785 321.578,196.500 321.489 C 197.215 321.401,196.630 321.328,195.200 321.328 C 193.770 321.328,193.185 321.401,193.900 321.489 " stroke="none" fill="#c4d6ec" fill-rule="evenodd"></path></g></svg>